<svg width="208" height="95" viewBox="0 0 208 95" fill="none" xmlns="http://www.w3.org/2000/svg">
<path fill-rule="evenodd" clip-rule="evenodd" d="M12 0H52C68.5686 0 82 13.4315 82 30C82 46.5685 68.5686 60 52 60L52 45C60.2843 45 67 38.2843 67 30C67 21.7157 60.2843 15 52 15H25L12 2V0ZM50 60L48 58V41L52 45V60H50Z" fill="#F72C5B"/>
<path d="M25 23H40V81L27 94H25V23Z" fill="black"/>
<path d="M95.36 77C94.808 77 94.532 76.724 94.532 76.172V14.992C94.532 14.44 94.808 14.164 95.36 14.164H101.064C101.616 14.164 101.892 14.44 101.892 14.992V76.172C101.892 76.724 101.616 77 101.064 77H95.36ZM117.911 77C117.359 77 117.083 76.724 117.083 76.172V33.024C117.083 32.472 117.359 32.196 117.911 32.196H123.615C124.167 32.196 124.443 32.472 124.443 33.024V76.172C124.443 76.724 124.167 77 123.615 77H117.911ZM120.855 24.468C119.199 24.468 117.972 24.0387 117.175 23.18C116.439 22.26 116.071 21.1253 116.071 19.776V18.856C116.071 17.4453 116.439 16.3107 117.175 15.452C117.972 14.5933 119.199 14.164 120.855 14.164C122.511 14.164 123.707 14.5933 124.443 15.452C125.24 16.3107 125.639 17.4453 125.639 18.856V19.776C125.639 21.1253 125.24 22.26 124.443 23.18C123.707 24.0387 122.511 24.468 120.855 24.468ZM141.339 77C141.094 77 140.879 76.9387 140.695 76.816C140.572 76.632 140.511 76.4173 140.511 76.172V38.544H133.795C133.55 38.544 133.335 38.4827 133.151 38.36C133.028 38.176 132.967 37.9613 132.967 37.716V33.024C132.967 32.7173 133.028 32.5027 133.151 32.38C133.335 32.2573 133.55 32.196 133.795 32.196H140.511V27.228C140.511 22.6893 141.707 19.224 144.099 16.832C146.552 14.3787 150.018 13.152 154.495 13.152C155.906 13.152 157.347 13.3053 158.819 13.612C160.352 13.8573 161.61 14.164 162.591 14.532C163.511 14.9 163.971 15.36 163.971 15.912V20.512C163.971 21.248 163.388 21.3707 162.223 20.88C161.242 20.512 160.107 20.2053 158.819 19.96C157.592 19.6533 156.458 19.5 155.415 19.5C152.839 19.5 150.938 20.1747 149.711 21.524C148.484 22.812 147.871 24.8053 147.871 27.504V32.196H160.475C161.027 32.196 161.303 32.472 161.303 33.024V37.716C161.303 37.9613 161.242 38.176 161.119 38.36C160.996 38.4827 160.782 38.544 160.475 38.544H147.871V76.172C147.871 76.724 147.595 77 147.043 77H141.339Z" fill="black"/>
<path d="M176.704 94.02C176.458 94.02 176.274 93.8973 176.152 93.652C176.029 93.468 176.029 93.2533 176.152 93.008L182.316 76.54L166.124 33.208C165.94 32.5333 166.154 32.196 166.768 32.196H172.932C173.484 32.196 173.79 32.4107 173.852 32.84L181.764 55.288C182.438 57.1893 183.113 59.1827 183.788 61.268C184.462 63.3533 185.106 65.3773 185.72 67.34H185.904C186.517 65.3773 187.161 63.3533 187.836 61.268C188.572 59.1827 189.246 57.1893 189.86 55.288L197.772 32.84C197.833 32.4107 198.14 32.196 198.692 32.196H204.672C205.408 32.196 205.622 32.5333 205.316 33.208L183.328 93.376C183.144 93.8053 182.837 94.02 182.408 94.02H176.704Z" fill="#F72C5B"/>
</svg>
